<svg width="31" height="31" viewBox="0 0 31 31" fill="none" xmlns="http://www.w3.org/2000/svg">
<path d="M4 0.5H27C28.933 0.5 30.5 2.067 30.5 4V27C30.5 28.933 28.933 30.5 27 30.5H4C2.067 30.5 0.5 28.933 0.5 27V4C0.5 2.067 2.067 0.5 4 0.5Z" stroke="#8C7CFC"/>
<path d="M15.9999 19.1818C17.7572 19.1818 19.1818 17.7572 19.1818 15.9999C19.1818 14.2427 17.7572 12.8181 15.9999 12.8181C14.2427 12.8181 12.8181 14.2427 12.8181 15.9999C12.8181 17.7572 14.2427 19.1818 15.9999 19.1818Z" stroke="#8C7CFC" stroke-linecap="round" stroke-linejoin="round"/>
<path d="M16 9V10.2727" stroke="#8C7CFC" stroke-linecap="round" stroke-linejoin="round"/>
<path d="M16 21.7273V23" stroke="#8C7CFC" stroke-linecap="round" stroke-linejoin="round"/>
<path d="M11.0491 11.0491L11.9527 11.9527" stroke="#8C7CFC" stroke-linecap="round" stroke-linejoin="round"/>
<path d="M20.0474 20.0474L20.951 20.951" stroke="#8C7CFC" stroke-linecap="round" stroke-linejoin="round"/>
<path d="M9 16H10.2727" stroke="#8C7CFC" stroke-linecap="round" stroke-linejoin="round"/>
<path d="M21.7273 16H23" stroke="#8C7CFC" stroke-linecap="round" stroke-linejoin="round"/>
<path d="M11.0491 20.951L11.9527 20.0474" stroke="#8C7CFC" stroke-linecap="round" stroke-linejoin="round"/>
<path d="M20.0474 11.9527L20.951 11.0491" stroke="#8C7CFC" stroke-linecap="round" stroke-linejoin="round"/>
</svg>
