<svg width="34" height="42" viewBox="0 0 34 42" fill="none" xmlns="http://www.w3.org/2000/svg">
<path d="M18.6298 0H4.13995C3.04197 0 1.98895 0.434207 1.21256 1.2071C0.436172 1.97999 0 3.02826 0 4.1213V37.0917C0 38.1847 0.436172 39.233 1.21256 40.0059C1.98895 40.7788 3.04197 41.213 4.13995 41.213H28.9797C30.0776 41.213 31.1306 40.7788 31.907 40.0059C32.6834 39.233 33.1196 38.1847 33.1196 37.0917V14.4246L18.6298 0Z" fill="#B9D2FF"/>
<path d="M18.6296 -6.10352e-05V14.4245H33.1195" fill="#B9D2FF"/>
<path d="M33.2499 14.624L18.626 0L17.3324 14.2296C17.3131 14.4414 17.4799 14.624 17.6925 14.624H33.2499Z" fill="#85AFF9"/>
</svg>
