<svg width="50" height="42" viewBox="0 0 50 42" fill="none" xmlns="http://www.w3.org/2000/svg">
<rect width="45.587" height="29.5916" rx="3.02273" fill="#7885FF"/>
<path d="M49.1193 37.4492C49.1193 38.6041 48.6018 39.7117 47.6806 40.5283C46.7595 41.345 45.5101 41.8037 44.2074 41.8037H4.91193C3.60921 41.8037 2.35984 41.345 1.43867 40.5283C0.517505 39.7117 0 38.6041 0 37.4492V6.96734C0 5.81244 0.517505 4.70485 1.43867 3.88821C2.35984 3.07157 3.60921 2.61279 4.91193 2.61279H14.2934C16.1183 2.61279 17.8369 3.47075 18.9337 4.92923L22.1037 9.14462H44.2074C45.5101 9.14462 46.7595 9.6034 47.6806 10.42C48.6018 11.2367 49.1193 12.3443 49.1193 13.4992V37.4492Z" fill="#D6CCFE"/>
</svg>
