<svg width="898" height="1080" viewBox="0 0 898 1080" fill="none" xmlns="http://www.w3.org/2000/svg">
<g opacity="0.36">
<path opacity="0.8" d="M897.99 0H0C233.746 167.874 381.46 414.902 381.46 690.351C381.46 831.663 342.576 965.499 273.15 1085H898V0H897.99Z" fill="#85AFF9"/>
</g>
<path d="M365.67 235.9C365.67 157.92 428.89 94.7 506.87 94.7C584.85 94.7 648.07 157.92 648.07 235.9" stroke="#8C7CFC" stroke-width="34.2476" stroke-miterlimit="10"/>
<path d="M648.07 231.76C648.07 309.74 584.85 372.96 506.87 372.96C428.89 372.96 365.67 309.74 365.67 231.76" stroke="#8C7CFC" stroke-width="34.2476" stroke-miterlimit="10"/>
<path d="M461.91 975.15C538.22 991.2 587.08 1066.08 571.02 1142.39C554.97 1218.7 480.09 1267.56 403.78 1251.5" stroke="#54C4E4" stroke-width="34.2476" stroke-miterlimit="10"/>
<path d="M407.83 1252.36C331.52 1236.31 282.66 1161.43 298.72 1085.12C314.77 1008.81 389.65 959.95 465.96 976.01" stroke="#54C4E4" stroke-width="34.2476" stroke-miterlimit="10"/>
<path d="M219.29 625.78L548.08 575.55L542.07 604.13L213.28 654.36L219.29 625.78Z" fill="#85AFF9" stroke="#85AFF9" stroke-width="26.068" stroke-miterlimit="10"/>
<path d="M868.63 864.37C789.8 881.36 712.13 831.22 695.14 752.39C678.15 673.56 728.29 595.89 807.12 578.9" stroke="#8C7CFC" stroke-width="46.3954" stroke-miterlimit="10"/>
</svg>
