<svg width="31" height="31" viewBox="0 0 31 31" fill="none" xmlns="http://www.w3.org/2000/svg">
<path d="M4 0.5H27C28.933 0.5 30.5 2.067 30.5 4V27C30.5 28.933 28.933 30.5 27 30.5H4C2.067 30.5 0.5 28.933 0.5 27V4C0.5 2.067 2.067 0.5 4 0.5Z" stroke="#8C7CFC"/>
<path d="M22 16.0856C21.8861 17.3176 21.4238 18.4917 20.667 19.4704C19.9102 20.4492 18.8904 21.1923 17.7267 21.6126C16.5631 22.0329 15.3038 22.1131 14.0962 21.8439C12.8886 21.5746 11.7827 20.967 10.9079 20.0921C10.033 19.2173 9.42539 18.1114 9.15613 16.9038C8.88687 15.6962 8.96709 14.4369 9.38741 13.2733C9.80773 12.1096 10.5508 11.0898 11.5296 10.333C12.5084 9.57621 13.6824 9.11385 14.9144 9C14.1931 9.97582 13.846 11.1781 13.9363 12.3882C14.0265 13.5983 14.5481 14.7358 15.4061 15.5939C16.2642 16.4519 17.4017 16.9735 18.6118 17.0637C19.8219 17.154 21.0242 16.8069 22 16.0856V16.0856Z" stroke="#8C7CFC" stroke-linecap="round" stroke-linejoin="round"/>
</svg>
