<svg width="1013" height="1080" viewBox="0 0 1013 1080" fill="none" xmlns="http://www.w3.org/2000/svg">
<g opacity="0.36">
<path opacity="0.8" d="M1012.99 0H115C348.746 167.874 496.46 414.902 496.46 690.351C496.46 831.663 457.576 965.499 388.15 1085H1013V0H1012.99Z" fill="#85AFF9"/>
</g>
<path d="M480.67 235.9C480.67 157.92 543.89 94.7 621.87 94.7C699.85 94.7 763.07 157.92 763.07 235.9" stroke="#8C7CFC" stroke-width="34.2476" stroke-miterlimit="10"/>
<path d="M763.07 231.76C763.07 309.74 699.85 372.96 621.87 372.96C543.89 372.96 480.67 309.74 480.67 231.76" stroke="#8C7CFC" stroke-width="34.2476" stroke-miterlimit="10"/>
<path d="M288.54 -139.3C321.39 -65.66 288.32 20.67 214.67 53.52C141.03 86.37 54.7001 53.3 21.8501 -20.35" stroke="#54C4E4" stroke-width="46.3954" stroke-miterlimit="10"/>
<path d="M576.91 975.15C653.22 991.2 702.08 1066.08 686.02 1142.39C669.97 1218.7 595.09 1267.56 518.78 1251.5" stroke="#54C4E4" stroke-width="34.2476" stroke-miterlimit="10"/>
<path d="M522.83 1252.36C446.52 1236.31 397.66 1161.43 413.72 1085.12C429.77 1008.81 504.65 959.95 580.96 976.01" stroke="#54C4E4" stroke-width="34.2476" stroke-miterlimit="10"/>
<path d="M334.29 625.78L663.08 575.55L657.07 604.13L328.28 654.36L334.29 625.78Z" fill="#85AFF9" stroke="#85AFF9" stroke-width="26.068" stroke-miterlimit="10"/>
<path d="M983.63 864.37C904.8 881.36 827.13 831.22 810.14 752.39C793.15 673.56 843.29 595.89 922.12 578.9" stroke="#8C7CFC" stroke-width="46.3954" stroke-miterlimit="10"/>
</svg>
